<svg xmlns="http://www.w3.org/2000/svg" xmlns:xlink="http://www.w3.org/1999/xlink" style="margin:auto;background:#f1f2f3;display:block;z-index:1;position:relative" width="1931" height="390" preserveAspectRatio="xMidYMid" viewBox="0 0 1931 390">
<g transform=""><path id="path0" d="M 1584.4483255668408 238.54015774271164
c 0 25.759221222712334 -6.302788171514719 7.398925244821628 -13.701713416336347 7.398925244821628
S 1557.044898734168 264.29937896542395 1557.044898734168 238.54015774271164
s 6.302788171514719 -7.398925244821628 13.701713416336347 -7.398925244821628
S 1584.4483255668408 212.7809365199993 1584.4483255668408 238.54015774271164
z" fill="none" stroke="none"></path>
<circle cx="0" cy="0" r="5.866380292922061" fill="#b49998">
  <animateMotion begin="-1.4664110451310464s" dur="20s" repeatCount="indefinite">
    <mpath xlink:href="#path0"></mpath>
  </animateMotion>
</circle><path id="path1" d="M 1924.283749224148 379.0644348572274
c 0 28.126814288519174 -6.882092857829159 8.07897857223423 -14.961071430063392 8.07897857223423
S 1894.3616063640213 407.1912491457466 1894.3616063640213 379.0644348572274
s 6.882092857829159 -8.07897857223423 14.961071430063392 -8.07897857223423
S 1924.283749224148 350.9376205687082 1924.283749224148 379.0644348572274
z" fill="none" stroke="none"></path>
<circle cx="0" cy="0" r="5.272436627589327" fill="#eae1da">
  <animateMotion begin="-3.245597262536508s" dur="20s" repeatCount="indefinite">
    <mpath xlink:href="#path1"></mpath>
  </animateMotion>
</circle><path id="path2" d="M 674.0442604444065 110.82022946212639
c 0 18.988225570900152 -4.646055192879824 5.454064791641533 -10.100119984521356 5.454064791641533
S 653.8440204753638 129.80845503302655 653.8440204753638 110.82022946212639
s 4.646055192879824 -5.454064791641533 10.100119984521356 -5.454064791641533
S 674.0442604444065 91.83200389122624 674.0442604444065 110.82022946212639
z" fill="none" stroke="none"></path>
<circle cx="0" cy="0" r="7.367041037583939" fill="#eae1da">
  <animateMotion begin="-15.15328840186716s" dur="20s" repeatCount="indefinite">
    <mpath xlink:href="#path2"></mpath>
  </animateMotion>
</circle><path id="path3" d="M 604.6126978696507 213.55971203509873
c 0 28.67826837955755 -7.01702311414706 8.23737496008568 -15.25439807423274 8.23737496008568
S 574.1039017211851 242.23798041465628 574.1039017211851 213.55971203509873
s 7.01702311414706 -8.23737496008568 15.25439807423274 -8.23737496008568
S 604.6126978696507 184.88144365554118 604.6126978696507 213.55971203509873
z" fill="none" stroke="none"></path>
<circle cx="0" cy="0" r="4.729725997315132" fill="#936162">
  <animateMotion begin="-11.205986281298323s" dur="20s" repeatCount="indefinite">
    <mpath xlink:href="#path3"></mpath>
  </animateMotion>
</circle><path id="path4" d="M 981.6004902937756 164.9942354373088
c 0 25.799641695113465 -6.31267828710223 7.410535380511315 -13.723213667613546 7.410535380511315
S 954.1540629585485 190.79387713242227 954.1540629585485 164.9942354373088
s 6.31267828710223 -7.410535380511315 13.723213667613546 -7.410535380511315
S 981.6004902937756 139.1945937421953 981.6004902937756 164.9942354373088
z" fill="none" stroke="none"></path>
<circle cx="0" cy="0" r="4.260592009300428" fill="#3f4448">
  <animateMotion begin="-6.5786379549793805s" dur="20s" repeatCount="indefinite">
    <mpath xlink:href="#path4"></mpath>
  </animateMotion>
</circle><path id="path5" d="M 346.5616409641086 173.3921275992986
c 0 27.789735551577387 -6.799616145598721 7.982158083963718 -14.781774229562439 7.982158083963718
S 316.9980925049838 201.18186315087598 316.9980925049838 173.3921275992986
s 6.799616145598721 -7.982158083963718 14.781774229562439 -7.982158083963718
S 346.5616409641086 145.6023920477212 346.5616409641086 173.3921275992986
z" fill="none" stroke="none"></path>
<circle cx="0" cy="0" r="6.80078082136507" fill="#3f4448">
  <animateMotion begin="-8.572352450269594s" dur="20s" repeatCount="indefinite">
    <mpath xlink:href="#path5"></mpath>
  </animateMotion>
</circle><path id="path6" d="M 483.82699962596746 370.3464217435039
c 0 25.690516631133985 -6.285977473575336 7.379190947240613 -13.665168420815949 7.379190947240613
S 456.4966627843355 396.0369383746379 456.4966627843355 370.3464217435039
s 6.285977473575336 -7.379190947240613 13.665168420815949 -7.379190947240613
S 483.82699962596746 344.65590511236996 483.82699962596746 370.3464217435039
z" fill="none" stroke="none"></path>
<circle cx="0" cy="0" r="7.00937001689636" fill="#b49998">
  <animateMotion begin="-6.996718823916317s" dur="20s" repeatCount="indefinite">
    <mpath xlink:href="#path6"></mpath>
  </animateMotion>
</circle><path id="path7" d="M 374.9676293337453 33.1933601471635
c 0 37.02743560731056 -9.059904457107901 10.635540014865798 -19.6954444719737 10.635540014865798
S 335.5767403897979 70.22079575447407 335.5767403897979 33.1933601471635
s 9.059904457107901 -10.635540014865798 19.6954444719737 -10.635540014865798
S 374.9676293337453 -3.834075460147055 374.9676293337453 33.1933601471635
z" fill="none" stroke="none"></path>
<circle cx="0" cy="0" r="5.4005470820298225" fill="#936162">
  <animateMotion begin="-4.4788051135550155s" dur="20s" repeatCount="indefinite">
    <mpath xlink:href="#path7"></mpath>
  </animateMotion>
</circle><path id="path8" d="M 504.18620529638724 324.3943823467148
c 0 36.509831949860136 -8.93325675368918 10.486866623895995 -19.420123377585178 10.486866623895995
S 465.3459585412169 360.90421429657493 465.3459585412169 324.3943823467148
s 8.93325675368918 -10.486866623895995 19.420123377585178 -10.486866623895995
S 504.18620529638724 287.88455039685465 504.18620529638724 324.3943823467148
z" fill="none" stroke="none"></path>
<circle cx="0" cy="0" r="7.670839603807375" fill="#3f4448">
  <animateMotion begin="-2.6777929620141316s" dur="20s" repeatCount="indefinite">
    <mpath xlink:href="#path8"></mpath>
  </animateMotion>
</circle><path id="path9" d="M 1876.0547958942386 84.03402759941994
c 0 18.840974377011804 -4.610025645439058 5.4117692359501985 -10.021794881389257 5.4117692359501985
S 1856.01120613146 102.87500197643175 1856.01120613146 84.03402759941994
s 4.610025645439058 -5.4117692359501985 10.021794881389257 -5.4117692359501985
S 1876.0547958942386 65.19305322240814 1876.0547958942386 84.03402759941994
z" fill="none" stroke="none"></path>
<circle cx="0" cy="0" r="6.735938412745664" fill="#936162">
  <animateMotion begin="-6.393054997335366s" dur="20s" repeatCount="indefinite">
    <mpath xlink:href="#path9"></mpath>
  </animateMotion>
</circle><path id="path10" d="M 128.6779458236736 173.61149811158126
c 0 37.0801123733868 -9.072793453062726 10.650670575334505 -19.72346402839723 10.650670575334505
S 89.23101776687916 210.69161048496807 89.23101776687916 173.61149811158126
s 9.072793453062726 -10.650670575334505 19.72346402839723 -10.650670575334505
S 128.6779458236736 136.53138573819444 128.6779458236736 173.61149811158126
z" fill="none" stroke="none"></path>
<circle cx="0" cy="0" r="4.85036836677433" fill="#d69484">
  <animateMotion begin="-10.461459100954066s" dur="20s" repeatCount="indefinite">
    <mpath xlink:href="#path10"></mpath>
  </animateMotion>
</circle><path id="path11" d="M 379.3241238601267 189.64018957169708
c 0 33.80811676812398 -8.27219878368991 9.710842050418591 -17.9830408341085 9.710842050418591
S 343.35804219190965 223.44830633982104 343.35804219190965 189.64018957169708
s 8.27219878368991 -9.710842050418591 17.9830408341085 -9.710842050418591
S 379.3241238601267 155.8320728035731 379.3241238601267 189.64018957169708
z" fill="none" stroke="none"></path>
<circle cx="0" cy="0" r="6.503442744917097" fill="#3f4448">
  <animateMotion begin="-1.8568903651871116s" dur="20s" repeatCount="indefinite">
    <mpath xlink:href="#path11"></mpath>
  </animateMotion>
</circle><path id="path12" d="M 21.982145732093286 325.5852147247936
c 0 24.906655393483927 -6.094181638831173 7.154039315149639 -13.248220953980812 7.154039315149639
S -4.514296175868338 350.4918701182775 -4.514296175868338 325.5852147247936
s 6.094181638831173 -7.154039315149639 13.248220953980812 -7.154039315149639
S 21.982145732093286 300.6785593313097 21.982145732093286 325.5852147247936
z" fill="none" stroke="none"></path>
<circle cx="0" cy="0" r="7.501184915352779" fill="#d69484">
  <animateMotion begin="-16.880611368802747s" dur="20s" repeatCount="indefinite">
    <mpath xlink:href="#path12"></mpath>
  </animateMotion>
</circle><path id="path13" d="M 166.94587230613035 211.98150469193723
c 0 28.071252065044586 -6.8684978457023975 8.063019210172381 -14.931517055874778 8.063019210172381
S 137.08283819438083 240.0527567569818 137.08283819438083 211.98150469193723
s 6.8684978457023975 -8.063019210172381 14.931517055874778 -8.063019210172381
S 166.94587230613035 183.91025262689266 166.94587230613035 211.98150469193723
z" fill="none" stroke="none"></path>
<circle cx="0" cy="0" r="4.197866407889304" fill="#3f4448">
  <animateMotion begin="-19.89401197461166s" dur="20s" repeatCount="indefinite">
    <mpath xlink:href="#path13"></mpath>
  </animateMotion>
</circle><path id="path14" d="M 1247.6711483242989 106.07120607291004
c 0 31.770259566317346 -7.773574149205307 9.125500088197535 -16.899074237402843 9.125500088197535
S 1213.8729998494932 137.84146563922738 1213.8729998494932 106.07120607291004
s 7.773574149205307 -9.125500088197535 16.899074237402843 -9.125500088197535
S 1247.6711483242989 74.3009465065927 1247.6711483242989 106.07120607291004
z" fill="none" stroke="none"></path>
<circle cx="0" cy="0" r="6.353985905125029" fill="#3f4448">
  <animateMotion begin="-12.778354318514932s" dur="20s" repeatCount="indefinite">
    <mpath xlink:href="#path14"></mpath>
  </animateMotion>
</circle><path id="path15" d="M 993.7547809244205 278.99050230067627
c 0 27.218877600641058 -6.659938136327066 7.818188246992645 -14.478126383319712 7.818188246992645
S 964.7985281577811 306.20937990131733 964.7985281577811 278.99050230067627
s 6.659938136327066 -7.818188246992645 14.478126383319712 -7.818188246992645
S 993.7547809244205 251.7716247000352 993.7547809244205 278.99050230067627
z" fill="none" stroke="none"></path>
<circle cx="0" cy="0" r="4.876211383601781" fill="#9f715a">
  <animateMotion begin="-11.946009711485575s" dur="20s" repeatCount="indefinite">
    <mpath xlink:href="#path15"></mpath>
  </animateMotion>
</circle><path id="path16" d="M 1118.1023424311868 367.94918552613643
c 0 33.872642455421584 -8.287986983773365 9.729376024429603 -18.01736300820297 9.729376024429603
S 1082.067616414781 401.82182798155804 1082.067616414781 367.94918552613643
s 8.287986983773365 -9.729376024429603 18.01736300820297 -9.729376024429603
S 1118.1023424311868 334.0765430707148 1118.1023424311868 367.94918552613643
z" fill="none" stroke="none"></path>
<circle cx="0" cy="0" r="4.802470217669477" fill="#eae1da">
  <animateMotion begin="-4.5615634313974285s" dur="20s" repeatCount="indefinite">
    <mpath xlink:href="#path16"></mpath>
  </animateMotion>
</circle><path id="path17" d="M 1058.2949756141998 190.51772563299204
c 0 33.098603048567135 -8.098594362947278 9.507045556503327 -17.605639919450603 9.507045556503327
S 1023.0836957752986 223.61632868155917 1023.0836957752986 190.51772563299204
s 8.098594362947278 -9.507045556503327 17.605639919450603 -9.507045556503327
S 1058.2949756141998 157.4191225844249 1058.2949756141998 190.51772563299204
z" fill="none" stroke="none"></path>
<circle cx="0" cy="0" r="4.980291144654881" fill="#9f715a">
  <animateMotion begin="-15.23292113114968s" dur="20s" repeatCount="indefinite">
    <mpath xlink:href="#path17"></mpath>
  </animateMotion>
</circle><path id="path18" d="M 684.0031480561104 123.04384824138597
c 0 32.93917066067436 -8.059584310590534 9.461251147214975 -17.520835457805507 9.461251147214975
S 648.9614771404993 155.98301890206034 648.9614771404993 123.04384824138597
s 8.059584310590534 -9.461251147214975 17.520835457805507 -9.461251147214975
S 684.0031480561104 90.10467758071161 684.0031480561104 123.04384824138597
z" fill="none" stroke="none"></path>
<circle cx="0" cy="0" r="5.626257667507581" fill="#eae1da">
  <animateMotion begin="-12.53202847285079s" dur="20s" repeatCount="indefinite">
    <mpath xlink:href="#path18"></mpath>
  </animateMotion>
</circle><path id="path19" d="M 1847.4282515264574 309.9619535312394
c 0 34.534490968547296 -8.449928641240295 9.91948144841252 -18.369410089652817 9.91948144841252
S 1810.6894313471519 344.49644449978666 1810.6894313471519 309.9619535312394
s 8.449928641240295 -9.91948144841252 18.369410089652817 -9.91948144841252
S 1847.4282515264574 275.4274625626921 1847.4282515264574 309.9619535312394
z" fill="none" stroke="none"></path>
<circle cx="0" cy="0" r="7.960416468572745" fill="#9f715a">
  <animateMotion begin="-12.305385174739389s" dur="20s" repeatCount="indefinite">
    <mpath xlink:href="#path19"></mpath>
  </animateMotion>
</circle><path id="path20" d="M 1047.3496262515998 79.28392732236347
c 0 34.8191243716441 -8.519572984551214 10.00123785142969 -18.520810835980903 10.00123785142969
S 1010.308004579638 114.10305169400758 1010.308004579638 79.28392732236347
s 8.519572984551214 -10.00123785142969 18.520810835980903 -10.00123785142969
S 1047.3496262515998 44.46480295071937 1047.3496262515998 79.28392732236347
z" fill="none" stroke="none"></path>
<circle cx="0" cy="0" r="7.721890674255852" fill="#936162">
  <animateMotion begin="-9.387914544990682s" dur="20s" repeatCount="indefinite">
    <mpath xlink:href="#path20"></mpath>
  </animateMotion>
</circle><path id="path21" d="M 666.7900314609734 183.16681212878044
c 0 29.47196852021583 -7.211226340052809 8.465352660061994 -15.676579000114803 8.465352660061994
S 635.4368734607439 212.63878064899626 635.4368734607439 183.16681212878044
s 7.211226340052809 -8.465352660061994 15.676579000114803 -8.465352660061994
S 666.7900314609734 153.6948436085646 666.7900314609734 183.16681212878044
z" fill="none" stroke="none"></path>
<circle cx="0" cy="0" r="6.84141158358872" fill="#9f715a">
  <animateMotion begin="-4.551179667162093s" dur="20s" repeatCount="indefinite">
    <mpath xlink:href="#path21"></mpath>
  </animateMotion>
</circle><path id="path22" d="M 1911.907565101577 335.161864483552
c 0 25.163895255076785 -6.157123307093255 7.227927360500779 -13.385050667594033 7.227927360500779
S 1885.137463766389 360.3257597386288 1885.137463766389 335.161864483552
s 6.157123307093255 -7.227927360500779 13.385050667594033 -7.227927360500779
S 1911.907565101577 309.9979692284752 1911.907565101577 335.161864483552
z" fill="none" stroke="none"></path>
<circle cx="0" cy="0" r="5.496616356826728" fill="#eae1da">
  <animateMotion begin="-8.505972159741093s" dur="20s" repeatCount="indefinite">
    <mpath xlink:href="#path22"></mpath>
  </animateMotion>
</circle><path id="path23" d="M 930.9576071479099 92.02092532227181
c 0 35.746982982751035 -8.746602219183764 10.267750431215724 -19.014352650399488 10.267750431215724
S 892.928901847111 127.76790830502284 892.928901847111 92.02092532227181
s 8.746602219183764 -10.267750431215724 19.014352650399488 -10.267750431215724
S 930.9576071479099 56.27394233952077 930.9576071479099 92.02092532227181
z" fill="none" stroke="none"></path>
<circle cx="0" cy="0" r="6.361114131912546" fill="#3f4448">
  <animateMotion begin="-1.0751445500729773s" dur="20s" repeatCount="indefinite">
    <mpath xlink:href="#path23"></mpath>
  </animateMotion>
</circle><path id="path24" d="M 1396.3492581075839 137.06960411714482
c 0 30.42218083496441 -7.443725097916824 8.738285984511055 -16.182011082427877 8.738285984511055
S 1363.9852359427282 167.49178495210924 1363.9852359427282 137.06960411714482
s 7.443725097916824 -8.738285984511055 16.182011082427877 -8.738285984511055
S 1396.3492581075839 106.64742328218041 1396.3492581075839 137.06960411714482
z" fill="none" stroke="none"></path>
<circle cx="0" cy="0" r="4.299587274962868" fill="#9f715a">
  <animateMotion begin="-8.244096111873125s" dur="20s" repeatCount="indefinite">
    <mpath xlink:href="#path24"></mpath>
  </animateMotion>
</circle><path id="path25" d="M 1040.5995992785756 9.085836635819641
c 0 26.916851304979776 -6.586038085261008 7.731436013132488 -14.317474098393497 7.731436013132488
S 1011.9646510817887 36.00268794079942 1011.9646510817887 9.085836635819641
s 6.586038085261008 -7.731436013132488 14.317474098393497 -7.731436013132488
S 1040.5995992785756 -17.831014669160133 1040.5995992785756 9.085836635819641
z" fill="none" stroke="none"></path>
<circle cx="0" cy="0" r="4.091414778493277" fill="#b49998">
  <animateMotion begin="-13.432698554785368s" dur="20s" repeatCount="indefinite">
    <mpath xlink:href="#path25"></mpath>
  </animateMotion>
</circle><path id="path26" d="M 273.1987534312795 62.7935614415483
c 0 21.283735361529732 -5.207722482076424 6.113413348524498 -11.321135830600921 6.113413348524498
S 250.55648177007768 84.07729680307803 250.55648177007768 62.7935614415483
s 5.207722482076424 -6.113413348524498 11.321135830600921 -6.113413348524498
S 273.1987534312795 41.50982608001857 273.1987534312795 62.7935614415483
z" fill="none" stroke="none"></path>
<circle cx="0" cy="0" r="7.916312023813398" fill="#d69484">
  <animateMotion begin="-10.043910788021954s" dur="20s" repeatCount="indefinite">
    <mpath xlink:href="#path26"></mpath>
  </animateMotion>
</circle><path id="path27" d="M 1080.1538306783134 41.218620482245306
c 0 21.747877266153164 -5.321289118314072 6.246730704107824 -11.568019822421896 6.246730704107824
S 1057.0177910334694 62.96649774839847 1057.0177910334694 41.218620482245306
s 5.321289118314072 -6.246730704107824 11.568019822421896 -6.246730704107824
S 1080.1538306783134 19.470743216092142 1080.1538306783134 41.218620482245306
z" fill="none" stroke="none"></path>
<circle cx="0" cy="0" r="5.538418735771194" fill="#d69484">
  <animateMotion begin="-15.961964968216202s" dur="20s" repeatCount="indefinite">
    <mpath xlink:href="#path27"></mpath>
  </animateMotion>
</circle><path id="path28" d="M 439.236743698734 104.68807689009599
c 0 32.79810547888519 -8.025068361854887 9.420732424786172 -17.44580078664106 9.420732424786172
S 404.34514212545196 137.4861823689812 404.34514212545196 104.68807689009599
s 8.025068361854887 -9.420732424786172 17.44580078664106 -9.420732424786172
S 439.236743698734 71.8899714112108 439.236743698734 104.68807689009599
z" fill="none" stroke="none"></path>
<circle cx="0" cy="0" r="7.561410165222321" fill="#eae1da">
  <animateMotion begin="-13.279049070048924s" dur="20s" repeatCount="indefinite">
    <mpath xlink:href="#path28"></mpath>
  </animateMotion>
</circle><path id="path29" d="M 281.0141810633657 60.88895697192674
c 0 37.373602681443515 -9.14460491141703 10.73497098296782 -19.87957589438485 10.73497098296782
S 241.25502927459598 98.26255965337026 241.25502927459598 60.88895697192674
s 9.14460491141703 -10.73497098296782 19.87957589438485 -10.73497098296782
S 281.0141810633657 23.515354290483224 281.0141810633657 60.88895697192674
z" fill="none" stroke="none"></path>
<circle cx="0" cy="0" r="6.365379022582441" fill="#d69484">
  <animateMotion begin="-13.061138709821446s" dur="20s" repeatCount="indefinite">
    <mpath xlink:href="#path29"></mpath>
  </animateMotion>
</circle><path id="path30" d="M 803.3190610816271 92.63464236783301
c 0 27.284798668777807 -6.676067759381803 7.837123021882988 -14.513190781264791 7.837123021882988
S 774.2926795190974 119.91944103661082 774.2926795190974 92.63464236783301
s 6.676067759381803 -7.837123021882988 14.513190781264791 -7.837123021882988
S 803.3190610816271 65.3498436990552 803.3190610816271 92.63464236783301
z" fill="none" stroke="none"></path>
<circle cx="0" cy="0" r="6.660464758686714" fill="#b49998">
  <animateMotion begin="-14.077076671254826s" dur="20s" repeatCount="indefinite">
    <mpath xlink:href="#path30"></mpath>
  </animateMotion>
</circle><path id="path31" d="M 1514.775776901758 328.6939738807927
c 0 24.7032284916607 -6.044406971363787 7.095608183774882 -13.14001515513867 7.095608183774882
S 1488.4957465914808 353.3972023724534 1488.4957465914808 328.6939738807927
s 6.044406971363787 -7.095608183774882 13.14001515513867 -7.095608183774882
S 1514.775776901758 303.99074538913203 1514.775776901758 328.6939738807927
z" fill="none" stroke="none"></path>
<circle cx="0" cy="0" r="7.162111599007059" fill="#eae1da">
  <animateMotion begin="-11.96090107405498s" dur="20s" repeatCount="indefinite">
    <mpath xlink:href="#path31"></mpath>
  </animateMotion>
</circle><path id="path32" d="M 652.9025123463787 55.007028428015424
c 0 31.725027220040328 -7.762506660222632 9.112507818522221 -16.875014478744855 9.112507818522221
S 619.1524833888889 86.73205564805575 619.1524833888889 55.007028428015424
s 7.762506660222632 -9.112507818522221 16.875014478744855 -9.112507818522221
S 652.9025123463787 23.282001207975096 652.9025123463787 55.007028428015424
z" fill="none" stroke="none"></path>
<circle cx="0" cy="0" r="6.002686845535179" fill="#eae1da">
  <animateMotion begin="-19.919079651980294s" dur="20s" repeatCount="indefinite">
    <mpath xlink:href="#path32"></mpath>
  </animateMotion>
</circle><path id="path33" d="M 24.92840782347845 28.928919778841482
c 0 28.473141096885474 -6.966832396046445 8.178455421445827 -15.145287817492273 8.178455421445827
S -5.362167811506096 57.40206087572696 -5.362167811506096 28.928919778841482
s 6.966832396046445 -8.178455421445827 15.145287817492273 -8.178455421445827
S 24.92840782347845 0.45577868195600857 24.92840782347845 28.928919778841482
z" fill="none" stroke="none"></path>
<circle cx="0" cy="0" r="5.5527399645620115" fill="#9f715a">
  <animateMotion begin="-11.647030360176114s" dur="20s" repeatCount="indefinite">
    <mpath xlink:href="#path33"></mpath>
  </animateMotion>
</circle><path id="path34" d="M 277.80280700427835 145.32356601654874
c 0 32.081800706999545 -7.849802300648824 9.214985309457317 -17.06478761010614 9.214985309457317
S 243.67323178406608 177.4053667235483 243.67323178406608 145.32356601654874
s 7.849802300648824 -9.214985309457317 17.06478761010614 -9.214985309457317
S 277.80280700427835 113.2417653095492 277.80280700427835 145.32356601654874
z" fill="none" stroke="none"></path>
<circle cx="0" cy="0" r="4.657588755572747" fill="#b49998">
  <animateMotion begin="-18.96478070160085s" dur="20s" repeatCount="indefinite">
    <mpath xlink:href="#path34"></mpath>
  </animateMotion>
</circle><path id="path35" d="M 715.577193282236 183.6700350689577
c 0 32.46768662690218 -7.9442211959441495 9.325824882195306 -17.270046078139455 9.325824882195306
S 681.0371011259571 216.13772169585988 681.0371011259571 183.6700350689577
s 7.9442211959441495 -9.325824882195306 17.270046078139455 -9.325824882195306
S 715.577193282236 151.20234844205552 715.577193282236 183.6700350689577
z" fill="none" stroke="none"></path>
<circle cx="0" cy="0" r="5.652200210720938" fill="#d69484">
  <animateMotion begin="-16.71699034003529s" dur="20s" repeatCount="indefinite">
    <mpath xlink:href="#path35"></mpath>
  </animateMotion>
</circle><path id="path36" d="M 360.0866911513675 60.407330518982896
c 0 33.920102623794634 -8.299599578162516 9.74300820045165 -18.042607778614165 9.74300820045165
S 324.00147559413915 94.32743314277752 324.00147559413915 60.407330518982896
s 8.299599578162516 -9.74300820045165 18.042607778614165 -9.74300820045165
S 360.0866911513675 26.487227895188262 360.0866911513675 60.407330518982896
z" fill="none" stroke="none"></path>
<circle cx="0" cy="0" r="5.927877437012312" fill="#eae1da">
  <animateMotion begin="-15.893446834363466s" dur="20s" repeatCount="indefinite">
    <mpath xlink:href="#path36"></mpath>
  </animateMotion>
</circle></g>
</svg>